<svg xmlns="http://www.w3.org/2000/svg" enable-background="new 0 0 64 64" viewBox="0 0 64 64"><path fill="#2b2e63" d="M46,18.4c0-0.1,0-0.1-0.1-0.2c0,0,0,0,0,0c0,0,0,0-0.1-0.1c0,0-0.1-0.1-0.1-0.1c0,0-0.1-0.1-0.1-0.1c0,0,0,0-0.1,0c0,0,0,0-0.1,0c0,0-0.1,0-0.1,0c-0.1,0-0.1,0-0.2,0H45c-0.1,0-0.1,0-0.2,0c0,0-0.1,0-0.1,0L18.5,28.5c-0.4,0.1-0.6,0.5-0.6,0.9s0.2,0.8,0.6,0.9l8.1,3.3l0.4,6v0c0,0,0,0,0,0c0,0.1,0,0.2,0.1,0.3c0,0,0,0,0,0c0,0,0.1,0.1,0.1,0.1c0,0,0,0.1,0.1,0.1c0,0.1,0.1,0.1,0.2,0.2c0,0,0,0,0,0c0.1,0,0.2,0.1,0.3,0.1c0,0,0,0,0,0c0.1,0,0.1,0,0.2,0c0.1,0,0.2,0,0.3,0c0,0,0,0,0.1,0c0,0,0.1,0,0.1,0l5.8-3.1l5.7,3.1c0.2,0.1,0.3,0.1,0.5,0.1c0.1,0,0.3,0,0.4-0.1c0.3-0.1,0.5-0.4,0.5-0.7L46,18.8c0,0,0,0,0,0c0,0,0-0.1,0-0.1c0-0.1,0-0.1,0-0.2C46,18.4,46,18.4,46,18.4z M27.4,31.8l-5.9-2.4l18-7.4L27.4,31.8z M30.1,33.8C30,33.9,30,33.9,30.1,33.8l-1.3,2.4l-0.2-2.9l7.3-6L30.1,33.8C30.1,33.8,30.1,33.8,30.1,33.8z M30.4,37.2l0.8-1.5l1,0.5L30.4,37.2z M39.8,38.1l-7.4-4l11-12.1L39.8,38.1z"/><path fill="#ecc25d" d="M35.9,27.4l-5.7,6.4c0,0,0,0.1-0.1,0.1c0,0-0.1,0.1-0.1,0.1l-1.3,2.3l-0.2-2.9L35.9,27.4z"/><path fill="#2b2e63" d="M63,47h-1.8V12.4c0-2.3-1.9-4.2-4.2-4.2H6.9c-2.3,0-4.2,1.9-4.2,4.2V47H1c-0.5,0-1,0.4-1,1c0,4.8,3.4,7.8,8.6,7.8h46.7c5.3,0,8.6-3.1,8.6-7.8C64,47.4,63.6,47,63,47z M4.7,13.4c0-1.2,1-3.3,2.3-3.3h50.2c1.2,0,2.2,2,2.2,3.3V47H4.7V13.4z M55.4,53.8H8.6c-3.8,0-6.2-1.8-6.6-4.9h60C61.6,52,59.2,53.8,55.4,53.8z"/><path fill="#f26e61" d="M2 48.9c.4 3.1 2.8 4.9 6.6 4.9h46.7c3.8 0 6.2-1.8 6.6-4.9H2zM35.4 52.3h-6.8c-.5 0-1-.4-1-1 0-.5.4-1 1-1h6.8c.5 0 1 .4 1 1C36.4 51.9 36 52.3 35.4 52.3zM57.1 10.2H6.9c-1.2 0-2.3 1-2.3 2.3V47h54.7V12.4C59.3 11.2 58.3 10.2 57.1 10.2zM56.3 44.2c0 .5-.4 1-1 1H8.6c-.5 0-1-.4-1-1V13.9c0-.5.4-1 1-1h46.7c.5 0 1 .4 1 1V44.2z"/><path fill="#2b2e63" d="M36.4 51.3c0 .5-.4 1-1 1h-6.8c-.5 0-1-.4-1-1 0-.5.4-1 1-1h6.8C36 50.4 36.4 50.8 36.4 51.3zM55.3 13H8.6c-.5 0-1 .4-1 1v30.3c0 .5.4 1 1 1h46.7c.5 0 1-.4 1-1V13.9C56.3 13.4 55.9 13 55.3 13zM54.4 43.2H9.6V14.9h44.8V43.2z"/><path fill="#ededed" d="M9.6,14.9v28.3h44.8V14.9H9.6z M46,18.7c0,0,0,0.1,0,0.1c0,0,0,0,0,0l-4.6,20.9c-0.1,0.3-0.3,0.5-0.5,0.7c-0.1,0.1-0.3,0.1-0.4,0.1c-0.2,0-0.3,0-0.5-0.1l-5.7-3.1l-5.8,3.1c0,0-0.1,0-0.1,0c0,0,0,0-0.1,0c-0.1,0-0.2,0-0.3,0c-0.1,0-0.1,0-0.2,0c0,0,0,0,0,0c-0.1,0-0.2-0.1-0.3-0.1c0,0,0,0,0,0c-0.1,0-0.1-0.1-0.2-0.2c0,0,0,0-0.1-0.1c0,0-0.1-0.1-0.1-0.1c0,0,0,0,0,0c0-0.1-0.1-0.2-0.1-0.3c0,0,0,0,0,0v0l-0.4-6l-8.1-3.3c-0.4-0.1-0.6-0.5-0.6-0.9s0.2-0.8,0.6-0.9l26.2-10.7c0,0,0.1,0,0.1,0c0.1,0,0.1,0,0.2,0h0.1c0.1,0,0.1,0,0.2,0c0,0,0.1,0,0.1,0c0,0,0,0,0.1,0c0,0,0.1,0,0.1,0c0,0,0.1,0.1,0.1,0.1c0,0,0.1,0.1,0.1,0.1c0,0,0,0,0.1,0.1c0,0,0,0,0,0c0,0.1,0.1,0.1,0.1,0.2c0,0,0,0.1,0,0.1C46,18.5,46,18.6,46,18.7z"/><path fill="#e15e5a" d="M62 48.9c-.4 3.1-2.8 4.9-6.6 4.9H8.6c-3.8 0-6.2-1.8-6.6-4.9h1.2l.9 1.5c1.1 1.6 3.2 1.9 4.6 1.9h46.7c1.4 0 3.5-.3 4.5-1.9l.7-1.5H62zM59.3 12.4V47h-1.5V12.4c0-.4-.3-.8-.7-.8H6.9c-.4 0-.8.3-.8.8V47H4.7V12.4c0-1.2 1-2.3 2.3-2.3h50.2C58.3 10.2 59.3 11.2 59.3 12.4z"/><path fill="#d6d6d6" d="M9.6,14.9v28.3h44.8V14.9H9.6z M52.9,41.7H11.1V16.4h41.8V41.7z"/><polygon fill="#ecc25d" points="32.2 36.2 30.4 37.2 31.2 35.7"/><polygon fill="#ffdc7c" points="43.3 22 39.8 38.1 32.4 34.1"/><polygon fill="#ffdc7c" points="39.4 22 27.4 31.8 21.5 29.4"/><polygon fill="#ecc25d" points="43.3 22 39.8 38.1 32.4 34.1 32.9 33.6 39.3 37 42.4 23"/><polygon fill="#ecc25d" points="37.5 23.5 23.3 29.4 28 31.3 27.4 31.8 21.5 29.4 39.4 22"/></svg>